<?xml version="1.0" encoding="utf-8"?>
<!-- Generator: Adobe Illustrator 21.0.0, SVG Export Plug-In . SVG Version: 6.00 Build 0)  -->
<svg version="1.1" id="Layer_1" xmlns="http://www.w3.org/2000/svg" xmlns:xlink="http://www.w3.org/1999/xlink" x="0px" y="0px"
	 viewBox="0 0 120 120" style="enable-background:new 0 0 120 120;" xml:space="preserve">
<style type="text/css">
	.st0{fill:#FFFFFF;}
</style>
<path class="st0" d="M35.4,22.7c3.5,0,6.6,0.3,9.5,0.9c2.9,0.6,5.3,1.6,7.4,3c2,1.4,3.6,3.2,4.8,5.6c1.1,2.3,1.7,5.2,1.7,8.6
	c0,3.7-0.8,6.7-2.5,9.2c-1.7,2.4-4.1,4.5-7.4,6c4.5,1.3,7.8,3.6,10,6.8c2.2,3.3,3.3,7.2,3.3,11.7c0,3.7-0.7,6.9-2.1,9.6
	c-1.4,2.7-3.4,4.9-5.8,6.6c-2.4,1.7-5.2,3-8.3,3.8c-3.1,0.8-6.3,1.2-9.5,1.2H1v-73H35.4z M33.3,52.2c2.8,0,5.2-0.7,7.1-2
	c1.8-1.3,2.7-3.6,2.7-6.6c0-1.7-0.3-3.1-0.9-4.2c-0.6-1.1-1.4-1.9-2.5-2.5c-1-0.6-2.2-1.1-3.5-1.3c-1.3-0.3-2.7-0.4-4.1-0.4h-15
	v17.1H33.3z M34.2,83.3c1.6,0,3.1-0.1,4.5-0.5c1.4-0.3,2.7-0.8,3.8-1.5c1.1-0.7,2-1.7,2.6-2.9c0.6-1.2,1-2.8,1-4.7
	c0-3.8-1.1-6.4-3.2-8.1c-2.1-1.6-4.9-2.4-8.4-2.4H17.1v20.1H34.2z"/>
<path class="st0" d="M85,83.1c2.2,2.1,5.3,3.2,9.4,3.2c2.9,0,5.5-0.7,7.6-2.2c2.1-1.5,3.4-3,3.9-4.7h12.8
	c-2.1,6.4-5.2,10.9-9.4,13.6c-4.2,2.7-9.3,4.1-15.3,4.1c-4.2,0-7.9-0.7-11.3-2c-3.4-1.3-6.2-3.2-8.5-5.7C71.8,87,70,84,68.8,80.6
	c-1.3-3.4-1.9-7.2-1.9-11.3c0-4,0.7-7.6,2-11.1c1.3-3.4,3.1-6.4,5.5-8.9c2.4-2.5,5.2-4.5,8.6-5.9c3.3-1.4,7-2.2,11-2.2
	c4.5,0,8.4,0.9,11.7,2.6c3.3,1.7,6.1,4.1,8.2,7c2.2,2.9,3.7,6.3,4.6,10c1,3.7,1.3,7.7,1,11.8H81.4C81.4,77,82.9,80.9,85,83.1z
	 M101.7,55.3c-1.7-1.9-4.6-2.9-8.2-2.9c-2.3,0-4.2,0.4-5.8,1.2c-1.5,0.8-2.7,1.8-3.7,2.9c-0.9,1.2-1.6,2.4-1.9,3.7
	c-0.4,1.3-0.6,2.5-0.7,3.5h23.6C104.7,60,103.5,57.2,101.7,55.3z"/>
<rect x="78.5" y="27.6" class="st0" width="29.6" height="7.2"/>
</svg>
