<?xml version="1.0" encoding="utf-8"?>
<!-- Generator: Adobe Illustrator 21.0.0, SVG Export Plug-In . SVG Version: 6.00 Build 0)  -->
<svg version="1.1" id="Layer_1" xmlns="http://www.w3.org/2000/svg" xmlns:xlink="http://www.w3.org/1999/xlink" x="0px" y="0px"
	 viewBox="0 0 120 120" style="enable-background:new 0 0 120 120;" xml:space="preserve">
<style type="text/css">
	.st0{fill-rule:evenodd;clip-rule:evenodd;fill:#FFFFFF;}
</style>
<g>
	<path class="st0" d="M61,118.8c-32.5,0-58.9-26.4-58.9-58.9C2.1,27.4,28.5,1,61,1c32.5,0,58.9,26.4,58.9,58.9
		C119.9,92.3,93.4,118.8,61,118.8L61,118.8z M110.6,67.9c-1.7-0.5-15.6-4.7-31.3-2.1c6.6,18.1,9.3,32.8,9.8,35.9
		C100.4,94,108.4,81.9,110.6,67.9L110.6,67.9z M80.6,106.3c-0.7-4.4-3.7-19.8-10.7-38.1c-0.1,0-0.2,0.1-0.3,0.1
		C41.2,78.1,31,97.8,30.1,99.6c8.5,6.6,19.2,10.6,30.9,10.6C67.9,110.3,74.6,108.8,80.6,106.3L80.6,106.3z M23.6,93.6
		c1.1-2,14.9-24.8,40.9-33.2c0.7-0.2,1.3-0.4,2-0.6c-1.3-2.9-2.6-5.7-4.1-8.5c-25.1,7.5-49.5,7.2-51.7,7.2c0,0.5,0,1,0,1.5
		C10.7,72.9,15.6,84.7,23.6,93.6L23.6,93.6z M11.8,49.7c2.2,0,23,0.1,46.5-6.1c-8.3-14.8-17.3-27.3-18.6-29.1
		C25.5,21.1,15,34.1,11.8,49.7L11.8,49.7z M49.2,11.1c1.4,1.9,10.5,14.3,18.8,29.4c17.9-6.7,25.5-16.9,26.4-18.2
		C85.4,14.5,73.8,9.7,61,9.7C56.9,9.7,53,10.2,49.2,11.1L49.2,11.1z M99.9,28.2c-1.1,1.4-9.5,12.2-28.1,19.8
		c1.2,2.4,2.3,4.8,3.3,7.3c0.4,0.9,0.7,1.7,1.1,2.6c16.7-2.1,33.4,1.3,35,1.6C111.2,47.6,106.9,36.7,99.9,28.2L99.9,28.2z"/>
</g>
</svg>
